<svg width="856" height="597" viewBox="0 0 856 597" fill="none" xmlns="http://www.w3.org/2000/svg">
<g filter="url(#filter0_d_1_3)">
<path d="M127 20C-2.00002 2.99999 20.913 70 26 88L26.2192 88.7755C34.7894 119.096 41.9409 144.397 35 191C32.6137 207.022 40.6667 236 52 253C59.6667 267.333 80 299 61 330C35 357 40 365 45 387C65.6667 407 95.4 455 61 487C18 527 60 573 87 579C108.6 583.8 139.333 551.667 152 535C171 550.333 219 574.2 259 547C299 519.8 343.667 539.667 361 553C386 566 415 559 434 540C453 521 515 517 549 540C583 563 590 553 638 535C686 517 738 534 786 559C834 584 873 514 841 509C809 504 818 428 818 416C818 404 868 275 827 253C786 231 808 127 841 95C874 63 777 -30 720 20C674.4 60 573 53.3333 528 45C498 27.3333 417.6 -2.40001 336 20C234 48 256 37 127 20Z" fill="#088395"/>
<path d="M127 20C-2.00002 2.99999 20.913 70 26 88L26.2192 88.7755C34.7894 119.096 41.9409 144.397 35 191C32.6137 207.022 40.6667 236 52 253C59.6667 267.333 80 299 61 330C35 357 40 365 45 387C65.6667 407 95.4 455 61 487C18 527 60 573 87 579C108.6 583.8 139.333 551.667 152 535C171 550.333 219 574.2 259 547C299 519.8 343.667 539.667 361 553C386 566 415 559 434 540C453 521 515 517 549 540C583 563 590 553 638 535C686 517 738 534 786 559C834 584 873 514 841 509C809 504 818 428 818 416C818 404 868 275 827 253C786 231 808 127 841 95C874 63 777 -30 720 20C674.4 60 573 53.3333 528 45C498 27.3333 417.6 -2.40001 336 20C234 48 256 37 127 20Z" stroke="#05BFDB" stroke-width="5"/>
</g>
<defs>
<filter id="filter0_d_1_3" x="0.686035" y="0.0121918" width="854.472" height="596.971" filterUnits="userSpaceOnUse" color-interpolation-filters="sRGB">
<feFlood flood-opacity="0" result="BackgroundImageFix"/>
<feColorMatrix in="SourceAlpha" type="matrix" values="0 0 0 0 0 0 0 0 0 0 0 0 0 0 0 0 0 0 127 0" result="hardAlpha"/>
<feOffset dx="-9" dy="6"/>
<feGaussianBlur stdDeviation="4.5"/>
<feComposite in2="hardAlpha" operator="out"/>
<feColorMatrix type="matrix" values="0 0 0 0 0 0 0 0 0 0 0 0 0 0 0 0 0 0 0.69 0"/>
<feBlend mode="normal" in2="BackgroundImageFix" result="effect1_dropShadow_1_3"/>
<feBlend mode="normal" in="SourceGraphic" in2="effect1_dropShadow_1_3" result="shape"/>
</filter>
</defs>
</svg>
